# xmcd
#
# Track frame offsets: 
#        182
#        16732
#        37110
#
# Disc length: 841 seconds
#
# Revision: 5
# Processed by: cddbd v1.5.2PL0 Copyright (c) Steve Scherf et al.
# Submitted via: ExactAudioCopyFreeDBPlugin 1.0
#
DISCID=1a034703
DTITLE=Tori Amos / Bliss
DYEAR=1999
DGENRE=Alternative
TTITLE0=Bliss
TTITLE1=Hey Jupiter [Live]
TTITLE2=Upside Down [Live]
EXTD=
EXTT0=
EXTT1=
EXTT2=
PLAYORDER=
